<svg xmlns="http://www.w3.org/2000/svg" viewBox="0 0 200 48" fill="none">
  <g transform="translate(4, 8)">
    <path d="M6 22 L10 12 Q12 9 16 9 L30 9 Q34 9 36 12 L40 22 L42 22 Q44 22 44 24 L44 28 Q44 30 42 30 L38 30 Q37 33 34 33 Q31 33 30 30 L16 30 Q15 33 12 33 Q9 33 8 30 L4 30 Q2 30 2 28 L2 24 Q2 22 4 22 Z"
      fill="#3B82F6" stroke="#1D4ED8" stroke-width="0.5"/>
    <path d="M13 22 L16 13 L30 13 L33 22 Z" fill="#BFDBFE" opacity="0.8"/>
    <path d="M8 22 L11 15 L15 15 L13 22 Z" fill="#BFDBFE" opacity="0.5"/>
    <circle cx="34" cy="30" r="3.5" fill="#1E293B" stroke="#64748B" stroke-width="1"/>
    <circle cx="34" cy="30" r="1.5" fill="#94A3B8"/>
    <circle cx="12" cy="30" r="3.5" fill="#1E293B" stroke="#64748B" stroke-width="1"/>
    <circle cx="12" cy="30" r="1.5" fill="#94A3B8"/>
    <rect x="40" y="21" width="3" height="4" rx="1" fill="#FCD34D"/>
    <rect x="3" y="21" width="2" height="4" rx="0.5" fill="#EF4444"/>
  </g>
  <text x="58" y="22" font-family="'Segoe UI', system-ui, sans-serif" font-weight="700" font-size="16" fill="#FFFFFF" letter-spacing="-0.3">Auto</text>
  <text x="58" y="22" font-family="'Segoe UI', system-ui, sans-serif" font-weight="700" font-size="16" fill="#60A5FA" letter-spacing="-0.3">
    <tspan dx="37">Dealer</tspan>
  </text>
  <text x="59" y="35" font-family="'Segoe UI', system-ui, sans-serif" font-weight="400" font-size="8.5" fill="#94A3B8" letter-spacing="1.8">MANAGEMENT</text>
</svg>